<mxfile host="app.diagrams.net" modified="2021-09-22T13:10:45.170Z" agent="5.0 (Windows NT 10.0; Win64; x64) AppleWebKit/537.36 (KHTML, like Gecko) Chrome/93.0.4577.82 Safari/537.36" etag="WAtuD3ndkBNNxE21tjpN" version="15.2.9" type="github">
  <diagram id="kgpKYQtTHZ0yAKxKKP6v" name="Page-1">
    <mxGraphModel dx="1351" dy="720" grid="1" gridSize="10" guides="1" tooltips="1" connect="1" arrows="1" fold="1" page="1" pageScale="1" pageWidth="850" pageHeight="1100" math="0" shadow="0">
      <root>
        <mxCell id="0" />
        <mxCell id="1" parent="0" />
        <mxCell id="Yq7Mh-y1mIm_HaebA1xc-1" value="admin" style="rounded=0;whiteSpace=wrap;html=1;labelBackgroundColor=none;fillColor=none;" parent="1" vertex="1">
          <mxGeometry x="198" y="160" width="120" height="40" as="geometry" />
        </mxCell>
        <mxCell id="Yq7Mh-y1mIm_HaebA1xc-2" value="student" style="rounded=0;whiteSpace=wrap;html=1;labelBackgroundColor=none;fillColor=none;" parent="1" vertex="1">
          <mxGeometry x="603.5" y="160" width="120" height="40" as="geometry" />
        </mxCell>
        <mxCell id="Yq7Mh-y1mIm_HaebA1xc-3" value="user name" style="ellipse;whiteSpace=wrap;html=1;labelBackgroundColor=none;fillColor=none;" parent="1" vertex="1">
          <mxGeometry x="128" y="80" width="90" height="40" as="geometry" />
        </mxCell>
        <mxCell id="Yq7Mh-y1mIm_HaebA1xc-4" value="password" style="ellipse;whiteSpace=wrap;html=1;labelBackgroundColor=none;fillColor=none;" parent="1" vertex="1">
          <mxGeometry x="268" y="80" width="90" height="40" as="geometry" />
        </mxCell>
        <mxCell id="Yq7Mh-y1mIm_HaebA1xc-7" value="" style="endArrow=none;html=1;entryX=0.5;entryY=1;entryDx=0;entryDy=0;exitX=0.25;exitY=0;exitDx=0;exitDy=0;labelBackgroundColor=none;" parent="1" source="Yq7Mh-y1mIm_HaebA1xc-1" target="Yq7Mh-y1mIm_HaebA1xc-3" edge="1">
          <mxGeometry width="50" height="50" relative="1" as="geometry">
            <mxPoint x="248" y="160" as="sourcePoint" />
            <mxPoint x="488" y="290" as="targetPoint" />
          </mxGeometry>
        </mxCell>
        <mxCell id="Yq7Mh-y1mIm_HaebA1xc-8" value="" style="endArrow=none;html=1;entryX=0.5;entryY=1;entryDx=0;entryDy=0;exitX=0.685;exitY=0.044;exitDx=0;exitDy=0;exitPerimeter=0;labelBackgroundColor=none;" parent="1" source="Yq7Mh-y1mIm_HaebA1xc-1" target="Yq7Mh-y1mIm_HaebA1xc-4" edge="1">
          <mxGeometry width="50" height="50" relative="1" as="geometry">
            <mxPoint x="238" y="170" as="sourcePoint" />
            <mxPoint x="214.7153074572568" y="124.1884270203517" as="targetPoint" />
          </mxGeometry>
        </mxCell>
        <mxCell id="Yq7Mh-y1mIm_HaebA1xc-10" value="roll no" style="ellipse;whiteSpace=wrap;html=1;labelBackgroundColor=none;fillColor=none;" parent="1" vertex="1">
          <mxGeometry x="520.5" y="80" width="90" height="40" as="geometry" />
        </mxCell>
        <mxCell id="Yq7Mh-y1mIm_HaebA1xc-16" value="mobile no" style="ellipse;whiteSpace=wrap;html=1;labelBackgroundColor=none;fillColor=none;" parent="1" vertex="1">
          <mxGeometry x="630.5" y="80" width="90" height="40" as="geometry" />
        </mxCell>
        <mxCell id="Yq7Mh-y1mIm_HaebA1xc-17" value="branch" style="ellipse;whiteSpace=wrap;html=1;fillColor=none;" parent="1" vertex="1">
          <mxGeometry x="730.5" y="80" width="90" height="40" as="geometry" />
        </mxCell>
        <mxCell id="Yq7Mh-y1mIm_HaebA1xc-18" value="gender" style="ellipse;whiteSpace=wrap;html=1;labelBackgroundColor=none;fillColor=none;" parent="1" vertex="1">
          <mxGeometry x="570.5" y="10" width="90" height="40" as="geometry" />
        </mxCell>
        <mxCell id="Yq7Mh-y1mIm_HaebA1xc-19" value="password" style="ellipse;whiteSpace=wrap;html=1;fillColor=none;" parent="1" vertex="1">
          <mxGeometry x="750.5" y="140" width="90" height="40" as="geometry" />
        </mxCell>
        <mxCell id="Yq7Mh-y1mIm_HaebA1xc-20" value="username" style="ellipse;whiteSpace=wrap;html=1;labelBackgroundColor=none;fillColor=none;" parent="1" vertex="1">
          <mxGeometry x="680.5" y="10" width="90" height="40" as="geometry" />
        </mxCell>
        <mxCell id="Yq7Mh-y1mIm_HaebA1xc-21" value="Name" style="ellipse;whiteSpace=wrap;html=1;labelBackgroundColor=none;fillColor=none;" parent="1" vertex="1">
          <mxGeometry x="445.5" y="120" width="90" height="40" as="geometry" />
        </mxCell>
        <mxCell id="Yq7Mh-y1mIm_HaebA1xc-26" value="" style="endArrow=none;html=1;entryX=0.5;entryY=1;entryDx=0;entryDy=0;labelBackgroundColor=none;" parent="1" target="Yq7Mh-y1mIm_HaebA1xc-20" edge="1">
          <mxGeometry width="50" height="50" relative="1" as="geometry">
            <mxPoint x="720.5" y="162" as="sourcePoint" />
            <mxPoint x="720.5" y="90" as="targetPoint" />
          </mxGeometry>
        </mxCell>
        <mxCell id="Yq7Mh-y1mIm_HaebA1xc-27" value="" style="endArrow=none;html=1;exitX=0.25;exitY=0;exitDx=0;exitDy=0;entryX=0.5;entryY=1;entryDx=0;entryDy=0;labelBackgroundColor=none;" parent="1" source="Yq7Mh-y1mIm_HaebA1xc-2" target="Yq7Mh-y1mIm_HaebA1xc-18" edge="1">
          <mxGeometry width="50" height="50" relative="1" as="geometry">
            <mxPoint x="620.5" y="172.00000000000003" as="sourcePoint" />
            <mxPoint x="620.5" y="60" as="targetPoint" />
          </mxGeometry>
        </mxCell>
        <mxCell id="Yq7Mh-y1mIm_HaebA1xc-28" value="" style="endArrow=none;html=1;entryX=0.5;entryY=1;entryDx=0;entryDy=0;exitX=1;exitY=0.25;exitDx=0;exitDy=0;labelBackgroundColor=none;" parent="1" source="Yq7Mh-y1mIm_HaebA1xc-2" target="Yq7Mh-y1mIm_HaebA1xc-17" edge="1">
          <mxGeometry width="50" height="50" relative="1" as="geometry">
            <mxPoint x="733.06" y="181.96000000000004" as="sourcePoint" />
            <mxPoint x="745.5" y="70.00000000000011" as="targetPoint" />
          </mxGeometry>
        </mxCell>
        <mxCell id="Yq7Mh-y1mIm_HaebA1xc-29" value="" style="endArrow=none;html=1;entryX=0;entryY=0.5;entryDx=0;entryDy=0;exitX=1;exitY=0.5;exitDx=0;exitDy=0;labelBackgroundColor=none;" parent="1" source="Yq7Mh-y1mIm_HaebA1xc-2" target="Yq7Mh-y1mIm_HaebA1xc-19" edge="1">
          <mxGeometry width="50" height="50" relative="1" as="geometry">
            <mxPoint x="743.06" y="191.96000000000004" as="sourcePoint" />
            <mxPoint x="755.5" y="80.00000000000011" as="targetPoint" />
          </mxGeometry>
        </mxCell>
        <mxCell id="Yq7Mh-y1mIm_HaebA1xc-30" value="" style="endArrow=none;html=1;entryX=0;entryY=0.5;entryDx=0;entryDy=0;exitX=0.5;exitY=1;exitDx=0;exitDy=0;labelBackgroundColor=none;" parent="1" source="Yq7Mh-y1mIm_HaebA1xc-21" target="Yq7Mh-y1mIm_HaebA1xc-2" edge="1">
          <mxGeometry width="50" height="50" relative="1" as="geometry">
            <mxPoint x="753.06" y="201.96000000000004" as="sourcePoint" />
            <mxPoint x="765.5" y="90.00000000000011" as="targetPoint" />
          </mxGeometry>
        </mxCell>
        <mxCell id="Yq7Mh-y1mIm_HaebA1xc-31" value="" style="endArrow=none;html=1;entryX=0.5;entryY=1;entryDx=0;entryDy=0;exitX=0;exitY=0;exitDx=0;exitDy=0;labelBackgroundColor=none;" parent="1" source="Yq7Mh-y1mIm_HaebA1xc-2" target="Yq7Mh-y1mIm_HaebA1xc-10" edge="1">
          <mxGeometry width="50" height="50" relative="1" as="geometry">
            <mxPoint x="763.06" y="211.96000000000004" as="sourcePoint" />
            <mxPoint x="775.5" y="100.00000000000011" as="targetPoint" />
          </mxGeometry>
        </mxCell>
        <mxCell id="Yq7Mh-y1mIm_HaebA1xc-32" value="" style="endArrow=none;html=1;entryX=0.5;entryY=1;entryDx=0;entryDy=0;exitX=0.5;exitY=0;exitDx=0;exitDy=0;labelBackgroundColor=none;" parent="1" source="Yq7Mh-y1mIm_HaebA1xc-2" target="Yq7Mh-y1mIm_HaebA1xc-16" edge="1">
          <mxGeometry width="50" height="50" relative="1" as="geometry">
            <mxPoint x="773.06" y="221.96000000000004" as="sourcePoint" />
            <mxPoint x="785.5" y="110.00000000000011" as="targetPoint" />
          </mxGeometry>
        </mxCell>
        <mxCell id="Yq7Mh-y1mIm_HaebA1xc-34" value="quiz" style="rounded=0;whiteSpace=wrap;html=1;labelBackgroundColor=none;fillColor=none;" parent="1" vertex="1">
          <mxGeometry x="129" y="400" width="120" height="40" as="geometry" />
        </mxCell>
        <mxCell id="Yq7Mh-y1mIm_HaebA1xc-35" value="manages" style="rhombus;whiteSpace=wrap;html=1;labelBackgroundColor=none;fillColor=none;" parent="1" vertex="1">
          <mxGeometry x="228" y="240" width="60" height="60" as="geometry" />
        </mxCell>
        <mxCell id="Yq7Mh-y1mIm_HaebA1xc-36" value="" style="endArrow=none;html=1;entryX=0.5;entryY=1;entryDx=0;entryDy=0;exitX=0.5;exitY=0;exitDx=0;exitDy=0;labelBackgroundColor=none;" parent="1" source="Yq7Mh-y1mIm_HaebA1xc-35" target="Yq7Mh-y1mIm_HaebA1xc-1" edge="1">
          <mxGeometry width="50" height="50" relative="1" as="geometry">
            <mxPoint x="300" y="270" as="sourcePoint" />
            <mxPoint x="350" y="220" as="targetPoint" />
          </mxGeometry>
        </mxCell>
        <mxCell id="Yq7Mh-y1mIm_HaebA1xc-38" value="" style="endArrow=none;html=1;exitX=0.5;exitY=0;exitDx=0;exitDy=0;labelBackgroundColor=none;" parent="1" edge="1">
          <mxGeometry width="50" height="50" relative="1" as="geometry">
            <mxPoint x="257.58" y="330" as="sourcePoint" />
            <mxPoint x="258" y="300" as="targetPoint" />
          </mxGeometry>
        </mxCell>
        <mxCell id="Yq7Mh-y1mIm_HaebA1xc-39" value="appears" style="rhombus;whiteSpace=wrap;html=1;labelBackgroundColor=none;fillColor=none;" parent="1" vertex="1">
          <mxGeometry x="633" y="320" width="60" height="60" as="geometry" />
        </mxCell>
        <mxCell id="Yq7Mh-y1mIm_HaebA1xc-41" value="" style="endArrow=none;html=1;entryX=0.5;entryY=1;entryDx=0;entryDy=0;labelBackgroundColor=none;" parent="1" source="Yq7Mh-y1mIm_HaebA1xc-39" target="Yq7Mh-y1mIm_HaebA1xc-2" edge="1">
          <mxGeometry width="50" height="50" relative="1" as="geometry">
            <mxPoint x="420" y="230" as="sourcePoint" />
            <mxPoint x="470" y="180" as="targetPoint" />
          </mxGeometry>
        </mxCell>
        <mxCell id="Yq7Mh-y1mIm_HaebA1xc-44" value="" style="endArrow=none;html=1;exitX=0.5;exitY=0;exitDx=0;exitDy=0;labelBackgroundColor=none;" parent="1" edge="1">
          <mxGeometry width="50" height="50" relative="1" as="geometry">
            <mxPoint x="188" y="500" as="sourcePoint" />
            <mxPoint x="188.07999999999998" y="440" as="targetPoint" />
          </mxGeometry>
        </mxCell>
        <mxCell id="Yq7Mh-y1mIm_HaebA1xc-52" value="" style="endArrow=none;html=1;labelBackgroundColor=none;" parent="1" edge="1">
          <mxGeometry width="50" height="50" relative="1" as="geometry">
            <mxPoint x="190" y="330" as="sourcePoint" />
            <mxPoint x="580" y="330" as="targetPoint" />
          </mxGeometry>
        </mxCell>
        <mxCell id="Yq7Mh-y1mIm_HaebA1xc-53" value="" style="endArrow=none;html=1;exitX=0.5;exitY=0;exitDx=0;exitDy=0;labelBackgroundColor=none;" parent="1" edge="1">
          <mxGeometry width="50" height="50" relative="1" as="geometry">
            <mxPoint x="190.29" y="400" as="sourcePoint" />
            <mxPoint x="190" y="330" as="targetPoint" />
          </mxGeometry>
        </mxCell>
        <mxCell id="Yq7Mh-y1mIm_HaebA1xc-54" value="student" style="rounded=0;whiteSpace=wrap;html=1;labelBackgroundColor=none;fillColor=none;" parent="1" vertex="1">
          <mxGeometry x="260" y="400" width="120" height="40" as="geometry" />
        </mxCell>
        <mxCell id="Yq7Mh-y1mIm_HaebA1xc-57" value="leaderboard" style="rounded=0;whiteSpace=wrap;html=1;labelBackgroundColor=none;fillColor=none;" parent="1" vertex="1">
          <mxGeometry x="390" y="400" width="120" height="40" as="geometry" />
        </mxCell>
        <mxCell id="Yq7Mh-y1mIm_HaebA1xc-59" value="" style="endArrow=none;html=1;labelBackgroundColor=none;" parent="1" edge="1">
          <mxGeometry width="50" height="50" relative="1" as="geometry">
            <mxPoint x="449" y="480" as="sourcePoint" />
            <mxPoint x="449.0799999999999" y="440" as="targetPoint" />
          </mxGeometry>
        </mxCell>
        <mxCell id="Yq7Mh-y1mIm_HaebA1xc-60" value="" style="rounded=0;whiteSpace=wrap;html=1;labelBackgroundColor=none;fillColor=none;" parent="1" vertex="1">
          <mxGeometry x="520" y="400" width="120" height="40" as="geometry" />
        </mxCell>
        <mxCell id="Yq7Mh-y1mIm_HaebA1xc-63" value="" style="endArrow=none;html=1;entryX=0.5;entryY=1;entryDx=0;entryDy=0;exitX=0.5;exitY=0;exitDx=0;exitDy=0;labelBackgroundColor=none;" parent="1" edge="1">
          <mxGeometry width="50" height="50" relative="1" as="geometry">
            <mxPoint x="148" y="580" as="sourcePoint" />
            <mxPoint x="147.92000000000002" y="540" as="targetPoint" />
          </mxGeometry>
        </mxCell>
        <mxCell id="Yq7Mh-y1mIm_HaebA1xc-64" value="ADD QUIZ" style="rounded=0;whiteSpace=wrap;html=1;labelBackgroundColor=none;fillColor=none;" parent="1" vertex="1">
          <mxGeometry x="128" y="500" width="120" height="40" as="geometry" />
        </mxCell>
        <mxCell id="Yq7Mh-y1mIm_HaebA1xc-66" value="" style="endArrow=none;html=1;entryX=0.5;entryY=1;entryDx=0;entryDy=0;exitX=0.5;exitY=0;exitDx=0;exitDy=0;labelBackgroundColor=none;" parent="1" edge="1">
          <mxGeometry width="50" height="50" relative="1" as="geometry">
            <mxPoint x="199.99999999999997" y="580" as="sourcePoint" />
            <mxPoint x="199.99999999999997" y="540" as="targetPoint" />
          </mxGeometry>
        </mxCell>
        <mxCell id="Yq7Mh-y1mIm_HaebA1xc-70" value="" style="endArrow=none;html=1;entryX=0.343;entryY=0.982;entryDx=0;entryDy=0;exitX=0.5;exitY=0;exitDx=0;exitDy=0;entryPerimeter=0;labelBackgroundColor=none;" parent="1" edge="1">
          <mxGeometry width="50" height="50" relative="1" as="geometry">
            <mxPoint x="174" y="610" as="sourcePoint" />
            <mxPoint x="173.15999999999997" y="539.2800000000001" as="targetPoint" />
          </mxGeometry>
        </mxCell>
        <mxCell id="Yq7Mh-y1mIm_HaebA1xc-76" value="" style="endArrow=none;html=1;entryX=0.5;entryY=1;entryDx=0;entryDy=0;exitX=0.75;exitY=0;exitDx=0;exitDy=0;labelBackgroundColor=none;" parent="1" edge="1">
          <mxGeometry width="50" height="50" relative="1" as="geometry">
            <mxPoint x="229.25" y="610" as="sourcePoint" />
            <mxPoint x="230" y="540" as="targetPoint" />
          </mxGeometry>
        </mxCell>
        <mxCell id="Yq7Mh-y1mIm_HaebA1xc-80" value="" style="endArrow=none;html=1;entryX=0.5;entryY=1;entryDx=0;entryDy=0;exitX=0.5;exitY=0;exitDx=0;exitDy=0;labelBackgroundColor=none;" parent="1" edge="1">
          <mxGeometry width="50" height="50" relative="1" as="geometry">
            <mxPoint x="289" y="480" as="sourcePoint" />
            <mxPoint x="289" y="440" as="targetPoint" />
          </mxGeometry>
        </mxCell>
        <mxCell id="Yq7Mh-y1mIm_HaebA1xc-81" value="" style="endArrow=none;html=1;entryX=0.5;entryY=1;entryDx=0;entryDy=0;exitX=0.5;exitY=0;exitDx=0;exitDy=0;labelBackgroundColor=none;" parent="1" edge="1">
          <mxGeometry width="50" height="50" relative="1" as="geometry">
            <mxPoint x="349.8600000000001" y="480" as="sourcePoint" />
            <mxPoint x="349.8600000000001" y="440" as="targetPoint" />
          </mxGeometry>
        </mxCell>
        <mxCell id="Yq7Mh-y1mIm_HaebA1xc-82" value="" style="endArrow=none;html=1;exitX=0.5;exitY=0;exitDx=0;exitDy=0;labelBackgroundColor=none;" parent="1" edge="1">
          <mxGeometry width="50" height="50" relative="1" as="geometry">
            <mxPoint x="320.09" y="400" as="sourcePoint" />
            <mxPoint x="319.8" y="330" as="targetPoint" />
          </mxGeometry>
        </mxCell>
        <mxCell id="Yq7Mh-y1mIm_HaebA1xc-83" value="" style="endArrow=none;html=1;exitX=0.5;exitY=0;exitDx=0;exitDy=0;labelBackgroundColor=none;" parent="1" edge="1">
          <mxGeometry width="50" height="50" relative="1" as="geometry">
            <mxPoint x="449.04999999999995" y="400" as="sourcePoint" />
            <mxPoint x="448.76" y="330" as="targetPoint" />
          </mxGeometry>
        </mxCell>
        <mxCell id="Yq7Mh-y1mIm_HaebA1xc-84" value="" style="endArrow=none;html=1;exitX=0.5;exitY=0;exitDx=0;exitDy=0;labelBackgroundColor=none;" parent="1" edge="1">
          <mxGeometry width="50" height="50" relative="1" as="geometry">
            <mxPoint x="580.05" y="400" as="sourcePoint" />
            <mxPoint x="579.76" y="330" as="targetPoint" />
          </mxGeometry>
        </mxCell>
        <mxCell id="Yq7Mh-y1mIm_HaebA1xc-85" value="&lt;span&gt;feedbacck&lt;/span&gt;" style="rounded=0;whiteSpace=wrap;html=1;labelBackgroundColor=none;fillColor=none;" parent="1" vertex="1">
          <mxGeometry x="524" y="405" width="110" height="30" as="geometry" />
        </mxCell>
        <mxCell id="Yq7Mh-y1mIm_HaebA1xc-86" value="view" style="rounded=0;whiteSpace=wrap;html=1;labelBackgroundColor=none;fillColor=none;" parent="1" vertex="1">
          <mxGeometry x="270" y="480" width="39" height="20" as="geometry" />
        </mxCell>
        <mxCell id="Yq7Mh-y1mIm_HaebA1xc-87" value="delete" style="rounded=0;whiteSpace=wrap;html=1;labelBackgroundColor=none;fillColor=none;" parent="1" vertex="1">
          <mxGeometry x="331" y="480" width="39" height="20" as="geometry" />
        </mxCell>
        <mxCell id="Yq7Mh-y1mIm_HaebA1xc-88" value="view" style="rounded=0;whiteSpace=wrap;html=1;labelBackgroundColor=none;fillColor=none;" parent="1" vertex="1">
          <mxGeometry x="429.5" y="480" width="39" height="20" as="geometry" />
        </mxCell>
        <mxCell id="Yq7Mh-y1mIm_HaebA1xc-89" value="" style="endArrow=none;html=1;entryX=0.5;entryY=1;entryDx=0;entryDy=0;exitX=0.5;exitY=0;exitDx=0;exitDy=0;labelBackgroundColor=none;" parent="1" edge="1">
          <mxGeometry width="50" height="50" relative="1" as="geometry">
            <mxPoint x="549" y="480" as="sourcePoint" />
            <mxPoint x="549" y="440" as="targetPoint" />
          </mxGeometry>
        </mxCell>
        <mxCell id="Yq7Mh-y1mIm_HaebA1xc-90" value="" style="endArrow=none;html=1;entryX=0.5;entryY=1;entryDx=0;entryDy=0;exitX=0.5;exitY=0;exitDx=0;exitDy=0;labelBackgroundColor=none;" parent="1" edge="1">
          <mxGeometry width="50" height="50" relative="1" as="geometry">
            <mxPoint x="609.8600000000001" y="480" as="sourcePoint" />
            <mxPoint x="609.8600000000001" y="440" as="targetPoint" />
          </mxGeometry>
        </mxCell>
        <mxCell id="Yq7Mh-y1mIm_HaebA1xc-91" value="view" style="rounded=0;whiteSpace=wrap;html=1;labelBackgroundColor=none;fillColor=none;" parent="1" vertex="1">
          <mxGeometry x="530" y="480" width="39" height="20" as="geometry" />
        </mxCell>
        <mxCell id="Yq7Mh-y1mIm_HaebA1xc-92" value="delete" style="rounded=0;whiteSpace=wrap;html=1;labelBackgroundColor=none;fillColor=none;" parent="1" vertex="1">
          <mxGeometry x="591" y="480" width="39" height="20" as="geometry" />
        </mxCell>
        <mxCell id="Yq7Mh-y1mIm_HaebA1xc-93" value="name" style="rounded=0;whiteSpace=wrap;html=1;labelBackgroundColor=none;fillColor=none;" parent="1" vertex="1">
          <mxGeometry x="128" y="580" width="39" height="20" as="geometry" />
        </mxCell>
        <mxCell id="Yq7Mh-y1mIm_HaebA1xc-94" value="&lt;font style=&quot;font-size: 8px&quot;&gt;no.of.questions&lt;/font&gt;" style="rounded=0;whiteSpace=wrap;html=1;labelBackgroundColor=none;fillColor=none;" parent="1" vertex="1">
          <mxGeometry x="130" y="610" width="63.5" height="20" as="geometry" />
        </mxCell>
        <mxCell id="Yq7Mh-y1mIm_HaebA1xc-95" value="marks" style="rounded=0;whiteSpace=wrap;html=1;labelBackgroundColor=none;fillColor=none;" parent="1" vertex="1">
          <mxGeometry x="181" y="580" width="39" height="20" as="geometry" />
        </mxCell>
        <mxCell id="Yq7Mh-y1mIm_HaebA1xc-96" value="time" style="rounded=0;whiteSpace=wrap;html=1;labelBackgroundColor=none;fillColor=none;" parent="1" vertex="1">
          <mxGeometry x="210" y="610" width="39" height="20" as="geometry" />
        </mxCell>
        <mxCell id="Yq7Mh-y1mIm_HaebA1xc-99" value="" style="endArrow=none;html=1;entryX=0.5;entryY=1;entryDx=0;entryDy=0;labelBackgroundColor=none;" parent="1" edge="1">
          <mxGeometry width="50" height="50" relative="1" as="geometry">
            <mxPoint x="663.08" y="650" as="sourcePoint" />
            <mxPoint x="663.08" y="380" as="targetPoint" />
          </mxGeometry>
        </mxCell>
        <mxCell id="Yq7Mh-y1mIm_HaebA1xc-100" value="" style="endArrow=none;html=1;labelBackgroundColor=none;" parent="1" edge="1">
          <mxGeometry width="50" height="50" relative="1" as="geometry">
            <mxPoint x="663" y="650" as="sourcePoint" />
            <mxPoint x="120" y="650" as="targetPoint" />
          </mxGeometry>
        </mxCell>
        <mxCell id="Yq7Mh-y1mIm_HaebA1xc-101" value="" style="endArrow=none;html=1;labelBackgroundColor=none;" parent="1" edge="1">
          <mxGeometry width="50" height="50" relative="1" as="geometry">
            <mxPoint x="120" y="650" as="sourcePoint" />
            <mxPoint x="120" y="420" as="targetPoint" />
          </mxGeometry>
        </mxCell>
        <mxCell id="Yq7Mh-y1mIm_HaebA1xc-102" value="" style="endArrow=none;html=1;exitX=0;exitY=0.5;exitDx=0;exitDy=0;labelBackgroundColor=none;" parent="1" source="Yq7Mh-y1mIm_HaebA1xc-34" edge="1">
          <mxGeometry width="50" height="50" relative="1" as="geometry">
            <mxPoint x="190" y="430" as="sourcePoint" />
            <mxPoint x="120" y="420" as="targetPoint" />
          </mxGeometry>
        </mxCell>
        <mxCell id="Yq7Mh-y1mIm_HaebA1xc-103" value="" style="endArrow=none;html=1;exitX=0.5;exitY=0;exitDx=0;exitDy=0;labelBackgroundColor=none;" parent="1" source="Yq7Mh-y1mIm_HaebA1xc-104" edge="1">
          <mxGeometry width="50" height="50" relative="1" as="geometry">
            <mxPoint x="450" y="230" as="sourcePoint" />
            <mxPoint x="605" y="200" as="targetPoint" />
          </mxGeometry>
        </mxCell>
        <mxCell id="Yq7Mh-y1mIm_HaebA1xc-104" value="views" style="rhombus;whiteSpace=wrap;html=1;labelBackgroundColor=none;fillColor=none;" parent="1" vertex="1">
          <mxGeometry x="419" y="240" width="60" height="60" as="geometry" />
        </mxCell>
        <mxCell id="Yq7Mh-y1mIm_HaebA1xc-105" value="" style="endArrow=none;html=1;exitX=0.5;exitY=0;exitDx=0;exitDy=0;labelBackgroundColor=none;" parent="1" edge="1">
          <mxGeometry width="50" height="50" relative="1" as="geometry">
            <mxPoint x="448.5799999999999" y="330" as="sourcePoint" />
            <mxPoint x="449" y="300" as="targetPoint" />
          </mxGeometry>
        </mxCell>
        <mxCell id="Yq7Mh-y1mIm_HaebA1xc-106" value="" style="endArrow=none;html=1;exitX=0.5;exitY=0;exitDx=0;exitDy=0;entryX=0.25;entryY=1;entryDx=0;entryDy=0;labelBackgroundColor=none;" parent="1" source="Yq7Mh-y1mIm_HaebA1xc-107" target="Yq7Mh-y1mIm_HaebA1xc-2" edge="1">
          <mxGeometry width="50" height="50" relative="1" as="geometry">
            <mxPoint x="581" y="230" as="sourcePoint" />
            <mxPoint x="736" y="200" as="targetPoint" />
          </mxGeometry>
        </mxCell>
        <mxCell id="Yq7Mh-y1mIm_HaebA1xc-107" value="gives" style="rhombus;whiteSpace=wrap;html=1;labelBackgroundColor=none;fillColor=none;" parent="1" vertex="1">
          <mxGeometry x="550" y="240" width="60" height="60" as="geometry" />
        </mxCell>
        <mxCell id="Yq7Mh-y1mIm_HaebA1xc-108" value="" style="endArrow=none;html=1;exitX=0.5;exitY=0;exitDx=0;exitDy=0;labelBackgroundColor=none;" parent="1" edge="1">
          <mxGeometry width="50" height="50" relative="1" as="geometry">
            <mxPoint x="579.5799999999999" y="330" as="sourcePoint" />
            <mxPoint x="580" y="300" as="targetPoint" />
          </mxGeometry>
        </mxCell>
        <mxCell id="Yq7Mh-y1mIm_HaebA1xc-109" value="" style="endArrow=none;html=1;entryX=0.5;entryY=1;entryDx=0;entryDy=0;labelBackgroundColor=none;" parent="1" edge="1">
          <mxGeometry width="50" height="50" relative="1" as="geometry">
            <mxPoint x="770" y="320" as="sourcePoint" />
            <mxPoint x="723.9" y="199.90000000000012" as="targetPoint" />
          </mxGeometry>
        </mxCell>
        <mxCell id="Yq7Mh-y1mIm_HaebA1xc-110" value="views" style="rhombus;whiteSpace=wrap;html=1;labelBackgroundColor=none;fillColor=none;" parent="1" vertex="1">
          <mxGeometry x="740" y="320" width="60" height="60" as="geometry" />
        </mxCell>
        <mxCell id="Yq7Mh-y1mIm_HaebA1xc-111" value="history" style="rounded=0;whiteSpace=wrap;html=1;fillColor=none;" parent="1" vertex="1">
          <mxGeometry x="710" y="435" width="120" height="40" as="geometry" />
        </mxCell>
        <mxCell id="Yq7Mh-y1mIm_HaebA1xc-112" value="" style="endArrow=none;html=1;exitX=0.5;exitY=0;exitDx=0;exitDy=0;labelBackgroundColor=none;" parent="1" edge="1">
          <mxGeometry width="50" height="50" relative="1" as="geometry">
            <mxPoint x="770.05" y="435" as="sourcePoint" />
            <mxPoint x="770" y="380" as="targetPoint" />
          </mxGeometry>
        </mxCell>
        <mxCell id="Yq7Mh-y1mIm_HaebA1xc-113" value="1" style="text;html=1;align=center;verticalAlign=middle;resizable=0;points=[];autosize=1;strokeColor=none;fillColor=none;labelBackgroundColor=none;" parent="1" vertex="1">
          <mxGeometry x="252" y="210" width="20" height="20" as="geometry" />
        </mxCell>
        <mxCell id="Yq7Mh-y1mIm_HaebA1xc-114" value="N" style="text;html=1;align=center;verticalAlign=middle;resizable=0;points=[];autosize=1;strokeColor=none;fillColor=none;labelBackgroundColor=none;" parent="1" vertex="1">
          <mxGeometry x="253" y="300" width="20" height="20" as="geometry" />
        </mxCell>
        <mxCell id="Yq7Mh-y1mIm_HaebA1xc-115" value="M" style="text;html=1;align=center;verticalAlign=middle;resizable=0;points=[];autosize=1;strokeColor=none;fillColor=none;rotation=0;labelBackgroundColor=none;" parent="1" vertex="1">
          <mxGeometry x="505" y="204" width="30" height="20" as="geometry" />
        </mxCell>
        <mxCell id="Yq7Mh-y1mIm_HaebA1xc-116" value="N" style="text;html=1;align=center;verticalAlign=middle;resizable=0;points=[];autosize=1;strokeColor=none;fillColor=none;labelBackgroundColor=none;" parent="1" vertex="1">
          <mxGeometry x="443.5" y="300" width="20" height="20" as="geometry" />
        </mxCell>
        <mxCell id="Yq7Mh-y1mIm_HaebA1xc-117" value="N" style="text;html=1;align=center;verticalAlign=middle;resizable=0;points=[];autosize=1;strokeColor=none;fillColor=none;labelBackgroundColor=none;" parent="1" vertex="1">
          <mxGeometry x="574.5" y="300" width="20" height="20" as="geometry" />
        </mxCell>
        <mxCell id="Yq7Mh-y1mIm_HaebA1xc-118" value="1" style="text;html=1;align=center;verticalAlign=middle;resizable=0;points=[];autosize=1;strokeColor=none;fillColor=none;labelBackgroundColor=none;" parent="1" vertex="1">
          <mxGeometry x="584.5" y="212" width="20" height="20" as="geometry" />
        </mxCell>
        <mxCell id="Yq7Mh-y1mIm_HaebA1xc-119" value="1" style="text;html=1;align=center;verticalAlign=middle;resizable=0;points=[];autosize=1;strokeColor=none;fillColor=none;labelBackgroundColor=none;" parent="1" vertex="1">
          <mxGeometry x="656.5" y="240" width="20" height="20" as="geometry" />
        </mxCell>
        <mxCell id="Yq7Mh-y1mIm_HaebA1xc-120" value="N" style="text;html=1;align=center;verticalAlign=middle;resizable=0;points=[];autosize=1;strokeColor=none;fillColor=none;labelBackgroundColor=none;" parent="1" vertex="1">
          <mxGeometry x="658.5" y="385" width="20" height="20" as="geometry" />
        </mxCell>
        <mxCell id="Yq7Mh-y1mIm_HaebA1xc-121" value="1" style="text;html=1;align=center;verticalAlign=middle;resizable=0;points=[];autosize=1;strokeColor=none;fillColor=none;labelBackgroundColor=none;" parent="1" vertex="1">
          <mxGeometry x="735.5" y="236" width="20" height="20" as="geometry" />
        </mxCell>
        <mxCell id="Yq7Mh-y1mIm_HaebA1xc-122" value="N" style="text;html=1;align=center;verticalAlign=middle;resizable=0;points=[];autosize=1;strokeColor=none;fillColor=none;labelBackgroundColor=none;" parent="1" vertex="1">
          <mxGeometry x="765.5" y="400" width="20" height="20" as="geometry" />
        </mxCell>
      </root>
    </mxGraphModel>
  </diagram>
</mxfile>
